<svg width="405" height="118" viewBox="0 0 405 118" fill="none" xmlns="http://www.w3.org/2000/svg">
<path d="M28.4105 29.9601C212.848 -24.9575 218.677 11.5841 277.058 32.7658L254.499 35.9268C203.744 -20.0156 46.6698 26.2763 53.8638 38.5889L28.4105 29.9601Z" fill="white" stroke="white" stroke-width="0.650485"/>
<path d="M152.743 8.11991C152.743 8.11991 109.535 7.0273 109.867 29.7696C110.199 52.5119 181.554 51.3619 181.554 51.3619C181.554 51.3619 119.736 48.0845 119.362 28.0856C118.989 8.08676 172.154 5.2233 172.154 5.2233L152.743 8.11991Z" fill="white" stroke="white" stroke-width="0.650485"/>
<path d="M403.806 84.8195L399.511 58.6447C318.688 19.9543 260.124 29.6387 205.476 47.8331C273.955 35.9053 341.184 36.7709 403.806 84.8195Z" fill="white" stroke="white" stroke-width="0.650485"/>
<path d="M19.7756 24.5421C44.6168 48.3273 11.2692 52.9556 4.01773 72.3499C44.5494 36.3539 57.9715 47.469 84.9484 35.0286C44.7205 41.644 41.3858 28.0999 19.7756 24.5421Z" fill="white" stroke="white" stroke-width="0.650485"/>
<path d="M53.3313 74.7188C51.4771 74.7188 49.8313 75.0833 48.3938 75.8125C46.9771 76.5208 45.7792 77.5521 44.8 78.9062C43.8417 80.2604 43.1125 81.8958 42.6125 83.8125C42.1125 85.7292 41.8625 87.8854 41.8625 90.2812C41.8625 93.5104 42.2583 96.2708 43.05 98.5625C43.8625 100.833 45.1125 102.573 46.8 103.781C48.4875 104.969 50.6646 105.562 53.3313 105.562C55.1854 105.562 57.0396 105.354 58.8938 104.938C60.7688 104.521 62.8 103.927 64.9875 103.156V111.281C62.9667 112.115 60.9771 112.708 59.0188 113.062C57.0604 113.438 54.8625 113.625 52.425 113.625C47.7167 113.625 43.8417 112.656 40.8 110.719C37.7792 108.76 35.5396 106.031 34.0813 102.531C32.6229 99.0104 31.8938 94.9062 31.8938 90.2188C31.8938 86.7604 32.3625 83.5938 33.3 80.7188C34.2375 77.8438 35.6125 75.3542 37.425 73.25C39.2375 71.1458 41.4771 69.5208 44.1438 68.375C46.8104 67.2292 49.8729 66.6562 53.3313 66.6562C55.6021 66.6562 57.8729 66.9479 60.1438 67.5312C62.4354 68.0938 64.6229 68.875 66.7063 69.875L63.5813 77.75C61.8729 76.9375 60.1542 76.2292 58.425 75.625C56.6958 75.0208 54.9979 74.7188 53.3313 74.7188ZM119.986 113L116.674 102.125H100.018L96.705 113H86.2675L102.393 67.125H114.236L130.424 113H119.986ZM114.361 94L111.049 83.375C110.84 82.6667 110.559 81.7604 110.205 80.6562C109.872 79.5312 109.528 78.3958 109.174 77.25C108.84 76.0833 108.57 75.0729 108.361 74.2188C108.153 75.0729 107.861 76.1354 107.486 77.4062C107.132 78.6562 106.788 79.8438 106.455 80.9688C106.122 82.0938 105.882 82.8958 105.736 83.375L102.455 94H114.361ZM239.327 113H213.015V67.3125H239.327V75.25H222.702V85.2812H238.171V93.2188H222.702V105H239.327V113ZM306.701 113H294.389L274.514 78.4375H274.232C274.316 79.875 274.389 81.3229 274.451 82.7812C274.514 84.2396 274.576 85.6979 274.639 87.1562C274.701 88.5938 274.764 90.0417 274.826 91.5V113H266.17V67.3125H278.389L298.232 101.531H298.451C298.41 100.115 298.357 98.7083 298.295 97.3125C298.232 95.9167 298.17 94.5208 298.107 93.125C298.066 91.7292 298.024 90.3333 297.982 88.9375V67.3125H306.701V113ZM353.138 113H343.45V75.375H331.044V67.3125H365.544V75.375H353.138V113Z" fill="white"/>
<path d="M166.798 67.3125C170.943 67.3125 174.36 67.8125 177.048 68.8125C179.756 69.8125 181.766 71.3229 183.079 73.3438C184.391 75.3646 185.048 77.9167 185.048 81C185.048 83.0833 184.652 84.9062 183.86 86.4688C183.068 88.0312 182.027 89.3542 180.735 90.4375C179.443 91.5208 178.048 92.4062 176.548 93.0938L189.985 113H179.235L168.329 95.4688H163.173V113H153.485V67.3125H166.798ZM166.11 75.25H163.173V87.5938H166.298C169.506 87.5938 171.798 87.0625 173.173 86C174.568 84.9167 175.266 83.3333 175.266 81.25C175.266 79.0833 174.516 77.5417 173.016 76.625C171.537 75.7083 169.235 75.25 166.11 75.25Z" fill="black"/>
</svg>
